<svg xmlns="http://www.w3.org/2000/svg">
  <symbol id="cat" viewBox="0 0 24 24">
    <path
      d="m 20.16199,5.7182363 c -0.844039,0.4378809 -1.217109,1.415541 -2.024326,1.8744476 -0.37867,0.215325 -1.01417,-0.066833 -1.424905,-0.094835 C 16.189501,7.4619939 15.434678,7.79181 14.958687,7.6160932 14.321602,7.3808085 13.816718,6.0760271 13.449976,5.5318914 c -0.804417,0.4179516 -1.019935,1.7839883 -1.11401,2.6102299 -0.261674,2.2982077 0.321343,5.1330087 2.88524,5.8730147 v 0.0932 C 14.459952,13.960611 13.68397,13.823551 12.983867,13.473492 10.024986,11.994058 10.211343,8.8508052 10.746529,6.0912174 9.1648268,5.5767311 7.0813669,5.2697907 5.8057457,6.6505556 3.885883,4.4361695 6.7994086,1.8707912 9.0685288,2.0985478 10.214884,2.2136783 10.848516,3.3133887 11.864731,3.4732969 12.396006,3.5568665 12.480094,2.931858 12.38547,2.5487715 12.118582,1.4680421 10.725371,0.61426938 9.7210833,0.35603347 7.2523289,-0.2787842 4.2161606,0.7641315 3.0441714,3.108095 2.4743425,4.2477675 2.4440115,5.9369397 2.9090377,7.1166635 3.0796885,7.54961 3.6904131,8.1121486 3.7032301,8.5545638 3.7278271,9.406395 3.0530025,10.394176 3.0127588,11.311663 c -0.1268361,2.892232 0.665682,5.972571 1.3598428,8.762907 0.2688747,1.08073 0.4270494,2.480742 1.0058872,3.443732 0.6320912,1.051643 1.137539,-0.352562 1.1697369,-0.926733 0.100165,-1.785767 0.1186862,-3.641826 0.4335394,-5.406891 0.079717,-0.446816 0.2742978,-1.611529 0.9647251,-1.412223 0.5704355,0.164724 0.7181204,1.011089 0.8018235,1.505452 0.2607534,1.540408 0.3714094,3.112597 0.5877715,4.661108 0.064598,0.462389 0.1019466,1.742425 0.6707348,1.887577 0.564835,0.144172 0.721543,-1.072996 0.800327,-1.421454 0.279661,-1.23557 0.384449,-2.513756 0.752393,-3.728907 0.126096,-0.416321 0.346413,-1.06935 0.866307,-1.114275 0.598397,-0.05171 0.792296,0.663739 0.873495,1.114275 0.211621,1.173397 -0.03586,2.530158 -0.03586,3.728907 0,0.389296 -0.09113,1.51541 0.563071,1.448108 0.514027,-0.05289 0.755282,-0.761993 0.907145,-1.168446 0.499387,-1.336535 0.777478,-2.804218 1.086316,-4.195015 0.21451,-0.965865 0.454549,-1.929983 0.694412,-2.889892 0.09631,-0.384997 0.124021,-0.957108 0.371396,-1.276865 0.288255,-0.372418 1.007651,-0.437112 1.411673,-0.669609 0.739443,-0.425376 1.299152,-1.105342 1.648914,-1.875634 0.82316,-1.8131777 0.366373,-4.1476276 0.215532,-6.0594597 z" />
  </symbol>
  <symbol id="lick" viewBox="0 0 217.65 204.19">
    <path fill="currentColor" stroke="black" stroke-width="15"
      d="M 200.06, 58.29 c 2-12.78-2.74-22.56-12.58-30.34-17.42-13.76-50-13-66.63,1.65 a 10.74,10.74,0,0,0-3.58,7.47 c -2.54,21.55-4.19,43.1-1.78,64.8,1,8.8,1.57,17.66,2,26.51.23,4.46-2.22,7.56-6.64,8.41-4.76.91-8.14-1.29-9.81-5.79a28.22,28.22,0,0,1-1.46-6.08 C 95.93,96.33,95,67.7,99.07,39.08 c .82-5.67-.74-9.57-5.72-12.39 C 74.2,15.87,54.66,14.38,35.2,25.23 c -11.49,6.4-17.74,16.19-17,30.23 a 199.25,199.25,0,0,0,23.7,85.26,111.73,111.73,0,0,0,9.41,14.41 c 31.92,42,84.64,41.94,116.05-.36 C 188.54,126.2,197,93,200.06,58.29 Z" />
  </symbol>
</svg>