<svg xmlns="http://www.w3.org/2000/svg">
  <symbol id="cat" viewBox="0 0 24 24">
    <path
      d="m 20.16199,5.7182363 c -0.844039,0.4378809 -1.217109,1.415541 -2.024326,1.8744476 -0.37867,0.215325 -1.01417,-0.066833 -1.424905,-0.094835 C 16.189501,7.4619939 15.434678,7.79181 14.958687,7.6160932 14.321602,7.3808085 13.816718,6.0760271 13.449976,5.5318914 c -0.804417,0.4179516 -1.019935,1.7839883 -1.11401,2.6102299 -0.261674,2.2982077 0.321343,5.1330087 2.88524,5.8730147 v 0.0932 C 14.459952,13.960611 13.68397,13.823551 12.983867,13.473492 10.024986,11.994058 10.211343,8.8508052 10.746529,6.0912174 9.1648268,5.5767311 7.0813669,5.2697907 5.8057457,6.6505556 3.885883,4.4361695 6.7994086,1.8707912 9.0685288,2.0985478 10.214884,2.2136783 10.848516,3.3133887 11.864731,3.4732969 12.396006,3.5568665 12.480094,2.931858 12.38547,2.5487715 12.118582,1.4680421 10.725371,0.61426938 9.7210833,0.35603347 7.2523289,-0.2787842 4.2161606,0.7641315 3.0441714,3.108095 2.4743425,4.2477675 2.4440115,5.9369397 2.9090377,7.1166635 3.0796885,7.54961 3.6904131,8.1121486 3.7032301,8.5545638 3.7278271,9.406395 3.0530025,10.394176 3.0127588,11.311663 c -0.1268361,2.892232 0.665682,5.972571 1.3598428,8.762907 0.2688747,1.08073 0.4270494,2.480742 1.0058872,3.443732 0.6320912,1.051643 1.137539,-0.352562 1.1697369,-0.926733 0.100165,-1.785767 0.1186862,-3.641826 0.4335394,-5.406891 0.079717,-0.446816 0.2742978,-1.611529 0.9647251,-1.412223 0.5704355,0.164724 0.7181204,1.011089 0.8018235,1.505452 0.2607534,1.540408 0.3714094,3.112597 0.5877715,4.661108 0.064598,0.462389 0.1019466,1.742425 0.6707348,1.887577 0.564835,0.144172 0.721543,-1.072996 0.800327,-1.421454 0.279661,-1.23557 0.384449,-2.513756 0.752393,-3.728907 0.126096,-0.416321 0.346413,-1.06935 0.866307,-1.114275 0.598397,-0.05171 0.792296,0.663739 0.873495,1.114275 0.211621,1.173397 -0.03586,2.530158 -0.03586,3.728907 0,0.389296 -0.09113,1.51541 0.563071,1.448108 0.514027,-0.05289 0.755282,-0.761993 0.907145,-1.168446 0.499387,-1.336535 0.777478,-2.804218 1.086316,-4.195015 0.21451,-0.965865 0.454549,-1.929983 0.694412,-2.889892 0.09631,-0.384997 0.124021,-0.957108 0.371396,-1.276865 0.288255,-0.372418 1.007651,-0.437112 1.411673,-0.669609 0.739443,-0.425376 1.299152,-1.105342 1.648914,-1.875634 0.82316,-1.8131777 0.366373,-4.1476276 0.215532,-6.0594597 z" />
  </symbol>
  <symbol id="lick" viewBox="0 0 217.65 204.19">
    <path fill="currentColor" stroke-width="15"
      d="M 200.06, 58.29 c 2-12.78-2.74-22.56-12.58-30.34-17.42-13.76-50-13-66.63,1.65 a 10.74,10.74,0,0,0-3.58,7.47 c -2.54,21.55-4.19,43.1-1.78,64.8,1,8.8,1.57,17.66,2,26.51.23,4.46-2.22,7.56-6.64,8.41-4.76.91-8.14-1.29-9.81-5.79a28.22,28.22,0,0,1-1.46-6.08 C 95.93,96.33,95,67.7,99.07,39.08 c .82-5.67-.74-9.57-5.72-12.39 C 74.2,15.87,54.66,14.38,35.2,25.23 c -11.49,6.4-17.74,16.19-17,30.23 a 199.25,199.25,0,0,0,23.7,85.26,111.73,111.73,0,0,0,9.41,14.41 c 31.92,42,84.64,41.94,116.05-.36 C 188.54,126.2,197,93,200.06,58.29 Z" />
  </symbol>
  <symbol id="yarn" viewBox="0 0 32 32">
    <path fill="currentColor" d="m25.065 21.973l-.225-.112A10.486 10.486 0 0 0 11.794 6.123l-1.13-2.595a.855.855 0 0 0-1.46-.2a.912.912 0 0 0-.093 1.012L10.5 6.89A10.534 10.534 0 0 0 8 9.348L5.42 7.2a.844.844 0 0 0-1.262.213a1 1 0 0 0 .254 1.349l2.772 1.91a10.49 10.49 0 0 0 16.993 11.975l.44.221A2.181 2.181 0 0 1 23.642 27H15a2 2 0 1 0 0 4h4a.5.5 0 1 0 0-1h-4a1 1 0 0 1 0-2h8.642a3.18 3.18 0 0 0 1.423-6.027Zm-2.288-.911A19.98 19.98 0 0 1 11.138 8.908c.034-.028.071-.052.106-.08a8.386 8.386 0 0 1 1.628-1.006c.149.427.314.859.5 1.291c.142.338.295.676.458 1.014a19.944 19.944 0 0 0 1.439 2.508a17.958 17.958 0 0 0 1.899 2.377a17.038 17.038 0 0 0 2.386 2.086a16.652 16.652 0 0 0 2.575 1.521a17.2 17.2 0 0 0 1.924.776a8.547 8.547 0 0 1-1.084 1.615a.482.482 0 0 0-.192.052Zm-10.9-12.689Zm2.76 1.133c1.169-.87 2.41-1.64 3.708-2.3a8.442 8.442 0 0 1 2.563 1.035a26.358 26.358 0 0 0-5.38 2.944a19.256 19.256 0 0 1-.891-1.679Zm3.308 4.873a13.223 13.223 0 0 1 6.085-2.814c.335.641.587 1.323.748 2.029a12.484 12.484 0 0 0-5.22 2.255a16.04 16.04 0 0 1-1.613-1.47Zm6.509 4.1a19.73 19.73 0 0 1-1.151-.427a7.837 7.837 0 0 1 1.418-.421a8.627 8.627 0 0 1-.267.844v.004Zm.47-1.9a9.081 9.081 0 0 0-2.817.915a15.705 15.705 0 0 1-1.7-1.016a11.252 11.252 0 0 1 4.54-1.9a7.908 7.908 0 0 1-.024 2l.001.001Zm-1.456-5.939a14.692 14.692 0 0 0-6.195 2.995a17.536 17.536 0 0 1-1.211-1.6a25.676 25.676 0 0 1 5.828-3.1a8.552 8.552 0 0 1 1.578 1.705Zm-6.843-3.634c-.839.45-1.65.95-2.427 1.5a21.917 21.917 0 0 1-.4-1.06A8.5 8.5 0 0 1 16.5 7c.042 0 .083.006.125.006Zm-6.384 2.757Zm-.539.65a8.6 8.6 0 0 1 .539-.65c.036-.039.071-.08.108-.118a20.924 20.924 0 0 0 11.756 12.234a8.502 8.502 0 0 1-2.005 1.314a21.692 21.692 0 0 1-2.637-1.461a21.212 21.212 0 0 1-2.179-1.622a21.859 21.859 0 0 1-2.217-2.169a22.951 22.951 0 0 1-1.96-2.54a25.008 25.008 0 0 1-1.563-2.674c-.2-.391-.558-1.174-.557-1.171a3.19 3.19 0 0 1 .1-.181c-.026.045-.055.087-.082.131c.203-.382.436-.747.695-1.093h.002Zm9.106 13.261c-.41.117-.83.201-1.253.254c.07-.27.165-.534.28-.789c.317.185.642.364.973.535Zm-5.189-.185a8.476 8.476 0 0 1-1.882-.949c.24-.776.566-1.522.972-2.225c.147-.26.305-.522.474-.786c.486.49 1.001.965 1.546 1.424c-.125.207-.242.413-.351.618a8.556 8.556 0 0 0-.759 1.918ZM8.452 12.782c.127.263.26.526.4.789c-.278.357-.548.726-.809 1.107c.063-.646.2-1.282.409-1.896Zm2.024 3.475c-.638.924-1.18 1.91-1.621 2.943a8.424 8.424 0 0 1-.786-2.662c.408-.68.854-1.334 1.337-1.962c.33.563.686 1.124 1.07 1.681Zm-1 4.031l.015.02c.41-1.122.95-2.191 1.609-3.186c.427.565.885 1.119 1.375 1.661c-.23.348-.444.7-.638 1.042c-.375.656-.69 1.344-.94 2.057a8.548 8.548 0 0 1-1.404-1.574l-.017-.02Zm5.086 3.466a7.39 7.39 0 0 1 .683-1.735c.08-.15.165-.3.254-.454c.467.357.954.699 1.461 1.027A5.57 5.57 0 0 0 16.517 24H16.5a8.499 8.499 0 0 1-1.921-.226l-.017-.02Z"/>
  </symbol>
  <symbol id="push-pin-off" viewBox="0 0 24 24">
    <path fill="currentColor" d="m9 9l7 7h-3v4l-1 3l-1-3v-4H6v-3l3-3V9zm8-7v2l-2 1v5l3 3v2.461L12.27 9.73L9 6.46V5L7 4V2h10z"/>
    <path fill="currentColor" d="M2.27 2.27L1 3.54L20.46 23l1.27-1.27L11 11z"/>
  </symbol>
  <symbol id="push-pin" viewBox="0 0 24 24">
    <path fill="currentColor" fill-rule="evenodd" d="M16 9V4h1c.55 0 1-.45 1-1s-.45-1-1-1H7c-.55 0-1 .45-1 1s.45 1 1 1h1v5c0 1.66-1.34 3-3 3v2h5.97v7l1 1l1-1v-7H19v-2c-1.66 0-3-1.34-3-3z"/>
  </symbol>
</svg>